<?xml version="1.0"?>
<svg xmlns="http://www.w3.org/2000/svg" height="512px" viewBox="0 0 128 128" width="512px" class=""><g><g><g><path d="m64.867 25.431s-13.48 16.282-32.353 17.823c0 0-5.007 44.678 32.353 59.314 37.36-14.636 32.353-59.314 32.353-59.314-18.872-1.541-32.353-17.823-32.353-17.823z" fill="#01ff67" data-original="#01FF67" class="active-path" style="fill:#E3E9ED" data-old_color="#01ff67"/><path d="m64.867 94.962c-11.748-5.426-19.584-15.142-23.309-28.917a68.349 68.349 0 0 1 -2.258-16.78c11.263-2.578 20.235-9.134 25.567-13.911 5.333 4.777 14.3 11.333 25.568 13.911a68.332 68.332 0 0 1 -2.259 16.78c-3.725 13.775-11.56 23.491-23.309 28.917z" fill="#01dd48" data-original="#01DD48" class="" style="fill:#C7EBFF" data-old_color="#01dd48"/><circle cx="64.867" cy="62.31" fill="#ffe5dc" r="14.28" data-original="#FFE5DC"/><path d="m62.879 67.874a1.745 1.745 0 0 1 -1.129-.414l-4.512-3.813a1.75 1.75 0 0 1 2.262-2.674l3.344 2.827 7.356-6.606a1.75 1.75 0 1 1 2.34 2.6l-8.488 7.628a1.745 1.745 0 0 1 -1.173.452z" fill="#00b0ff" data-original="#00B0FF"/></g><g fill="#001465"><path d="m55.664 73.368a1.751 1.751 0 0 0 .521 2.42 16.023 16.023 0 1 0 -5.241-5.529 1.75 1.75 0 1 0 3.038-1.738 12.535 12.535 0 1 1 4.1 4.325 1.751 1.751 0 0 0 -2.418.522z" data-original="#001465" class=""/><path d="m61.75 67.46a1.748 1.748 0 0 0 2.3-.035l8.487-7.625a1.75 1.75 0 1 0 -2.34-2.6l-7.353 6.6-3.344-2.827a1.75 1.75 0 0 0 -2.259 2.674z" data-original="#001465" class=""/><path d="m49.851 39.385a1.75 1.75 0 0 0 .86-.226q.386-.219.762-.44a1.75 1.75 0 0 0 -1.773-3.019c-.235.138-.473.276-.714.412a1.75 1.75 0 0 0 .863 3.273z" data-original="#001465" class=""/><path d="m98.96 43.058a1.752 1.752 0 0 0 -1.6-1.549c-17.89-1.46-31.018-17.038-31.149-17.195a1.751 1.751 0 0 0 -2.694 0 56.046 56.046 0 0 1 -8.793 8.043 1.751 1.751 0 0 0 2.09 2.809 63.079 63.079 0 0 0 8.046-7.116c3.813 4.057 15.326 14.926 30.723 16.8.4 7.069.67 39.038-25.5 53.363a1.75 1.75 0 1 0 1.681 3.071c31.408-17.196 27.241-57.817 27.196-58.226z" data-original="#001465" class=""/><path d="m65.505 100.938c-31.995-12.533-31.771-48.538-31.354-56.093a41.625 41.625 0 0 0 10.3-2.675 1.75 1.75 0 1 0 -1.292-3.253 37.558 37.558 0 0 1 -10.791 2.592 1.752 1.752 0 0 0 -1.6 1.549c-.051.461-4.715 46.187 33.454 61.14a1.75 1.75 0 1 0 1.276-3.26z" data-original="#001465" class=""/><path d="m79.148 85.85a1.749 1.749 0 0 0 1.347-.631q.33-.4.653-.8a1.75 1.75 0 1 0 -2.743-2.174q-.3.375-.6.741a1.75 1.75 0 0 0 1.345 2.869z" data-original="#001465" class=""/><path d="m82.334 79.77a1.752 1.752 0 0 0 2.389-.643 52.993 52.993 0 0 0 5.143-12.627 70.246 70.246 0 0 0 2.319-17.217 1.751 1.751 0 0 0 -1.359-1.726c-10.782-2.466-19.433-8.706-24.791-13.507a1.752 1.752 0 0 0 -2.336 0c-5.358 4.8-14.008 11.041-24.79 13.509a1.751 1.751 0 0 0 -1.359 1.726 70.24 70.24 0 0 0 2.319 17.215c3.863 14.289 12.031 24.4 24.264 30.051a1.754 1.754 0 0 0 1.468 0 43.546 43.546 0 0 0 9.283-5.767 1.75 1.75 0 0 0 -2.214-2.711 39.759 39.759 0 0 1 -7.8 4.953c-10.848-5.261-18.12-14.488-21.622-27.438a66.191 66.191 0 0 1 -2.168-14.957c10.111-2.631 18.32-8.256 23.787-12.95 5.47 4.694 13.677 10.319 23.788 12.95a66.2 66.2 0 0 1 -2.168 14.957 49.424 49.424 0 0 1 -4.8 11.791 1.75 1.75 0 0 0 .647 2.391z" data-original="#001465" class=""/></g></g></g> </svg>
